HIERARCHY
ROOT Hips
{
	OFFSET 0.00000 0.00000 0.00000
	CHANNELS 6 Xposition Yposition Zposition Zrotation Yrotation Xrotation 
	JOINT LHipJoint
	{
		OFFSET 0 0 0
		CHANNELS 3 Zrotation Yrotation Xrotation
		JOINT LeftUpLeg
		{
			OFFSET 1.44361 -1.63093 0.70831
			CHANNELS 3 Zrotation Yrotation Xrotation
			JOINT LeftLeg
			{
				OFFSET 2.20103 -6.04728 0.00000
				CHANNELS 3 Zrotation Yrotation Xrotation
				JOINT LeftFoot
				{
					OFFSET 2.54154 -6.98283 0.00000
					CHANNELS 3 Zrotation Yrotation Xrotation
					JOINT LeftToeBase
					{
						OFFSET 0.05971 -0.16406 1.77582
						CHANNELS 3 Zrotation Yrotation Xrotation
						End Site
						{
							OFFSET 0.00000 -0.00000 0.90832
						}
					}
				}
			}
		}
	}
	JOINT RHipJoint
	{
		OFFSET 0 0 0
		CHANNELS 3 Zrotation Yrotation Xrotation
		JOINT RightUpLeg
		{
			OFFSET -1.65838 -1.63093 0.70830
			CHANNELS 3 Zrotation Yrotation Xrotation
			JOINT RightLeg
			{
				OFFSET -2.26926 -6.23475 0.00000
				CHANNELS 3 Zrotation Yrotation Xrotation
				JOINT RightFoot
				{
					OFFSET -2.34808 -6.45129 0.00000
					CHANNELS 3 Zrotation Yrotation Xrotation
					JOINT RightToeBase
					{
						OFFSET -0.18633 -0.51195 1.68539
						CHANNELS 3 Zrotation Yrotation Xrotation
						End Site
						{
							OFFSET -0.00000 -0.00000 0.88927
						}
					}
				}
			}
		}
	}
	JOINT LowerBack
	{
		OFFSET 0 0 0
		CHANNELS 3 Zrotation Yrotation Xrotation
		JOINT Spine
		{
			OFFSET -0.10393 2.01691 0.06920
			CHANNELS 3 Zrotation Yrotation Xrotation
			JOINT Spine1
			{
				OFFSET 0.04092 2.01302 -0.05283
				CHANNELS 3 Zrotation Yrotation Xrotation
				JOINT Neck
				{
					OFFSET 0 0 0
					CHANNELS 3 Zrotation Yrotation Xrotation
					JOINT Neck1
					{
						OFFSET -0.02870 1.58978 -0.03113
						CHANNELS 3 Zrotation Yrotation Xrotation
						JOINT Head
						{
							OFFSET 0.11532 1.54326 -0.29195
							CHANNELS 3 Zrotation Yrotation Xrotation
							End Site
							{
								OFFSET 0.04056 1.59999 -0.09535
							}
						}
					}
				}
				JOINT LeftShoulder
				{
					OFFSET 0 0 0
					CHANNELS 3 Zrotation Yrotation Xrotation
					JOINT LeftArm
					{
						OFFSET 3.30641 1.15764 0.01104
						CHANNELS 3 Zrotation Yrotation Xrotation
						JOINT LeftForeArm
						{
							OFFSET 4.63208 -0.00000 0.00000
							CHANNELS 3 Zrotation Yrotation Xrotation
							JOINT LeftHand
							{
								OFFSET 3.41924 -0.00000 -0.00000
								CHANNELS 3 Zrotation Yrotation Xrotation
								JOINT LeftFingerBase
								{
									OFFSET 0 0 0
									CHANNELS 3 Zrotation Yrotation Xrotation
									JOINT LeftHandIndex1
									{
										OFFSET 0.62537 -0.00000 -0.00000
										CHANNELS 3 Zrotation Yrotation Xrotation
										End Site
										{
											OFFSET 0.50419 -0.00000 -0.00000
										}
									}
								}
								JOINT LThumb
								{
									OFFSET 0 0 0
									CHANNELS 3 Zrotation Yrotation Xrotation
									End Site
									{
										OFFSET 0.51189 -0.00000 0.51189
									}
								}
							}
						}
					}
				}
				JOINT RightShoulder
				{
					OFFSET 0 0 0
					CHANNELS 3 Zrotation Yrotation Xrotation
					JOINT RightArm
					{
						OFFSET -3.78081 1.02180 -0.16609
						CHANNELS 3 Zrotation Yrotation Xrotation
						JOINT RightForeArm
						{
							OFFSET -4.40640 -0.00000 -0.00000
							CHANNELS 3 Zrotation Yrotation Xrotation
							JOINT RightHand
							{
								OFFSET -3.44675 -0.00000 0.00000
								CHANNELS 3 Zrotation Yrotation Xrotation
								JOINT RightFingerBase
								{
									OFFSET 0 0 0
									CHANNELS 3 Zrotation Yrotation Xrotation
									JOINT RightHandIndex1
									{
										OFFSET -0.51367 -0.00000 -0.00000
										CHANNELS 3 Zrotation Yrotation Xrotation
										End Site
										{
											OFFSET -0.41414 -0.00000 -0.00000
										}
									}
								}
								JOINT RThumb
								{
									OFFSET 0 0 0
									CHANNELS 3 Zrotation Yrotation Xrotation
									End Site
									{
										OFFSET -0.42046 -0.00000 0.42046
									}
								}
							}
						}
					}
				}
			}
		}
	}
}
MOTION
Frames: 6
Frame Time: .0083333
6.4785 16.6242 35.3198 0 0 0 0 0 0 -21 0 0 0 0 0 0 0 0 0 0 0 0 0 0 21 0 0 0 0 0 0 0 0 0 0 0 0 0 0 0 0 0 0 0 0 0 0 -16 0 0 21 0 0 11 0 0 0 -8 0 0 0 0 0 0 0 0 0 0 0 0 0 0 0 0 0 0 0 0 8 0 0 0 0 0 0 0 0 0 0 0 0 0 0 0 0 0
6.4785 16.6242 35.3198 179.6500 2.8765 -169.7440 0.0000 0.0000 0.0000 -19.5482 -9.4874 -5.4659 0.1910 2.8145 7.7628 0.5188 -5.8711 -12.8695 0.6811 -5.2768 -14.6997 0.0000 0.0000 0.0000 18.3014 5.7838 -6.1352 -0.1992 -2.8738 7.9275 -0.4025 2.5605 -11.3752 -0.9911 6.3360 -17.7626 -6.2236 0.9085 -10.2345 1.5407 1.9030 0.9215 5.4443 0.6911 6.4801 -3.2393 0.5359 -8.3029 6.9612 -4.2222 31.4962 2.4064 -2.6477 11.8595 0.0000 -0.0000 0.0000 -91.1653 -1.6396 10.1712 7.6578 -12.9967 -0.8736 -0.0000 -0.0000 37.7729 37.9344 -23.8712 -17.5067 -7.1250 0.0000 -0.0000 5.2106 0.7900 -5.1598 0.0000 -0.0000 0.0000 93.8560 -4.7157 -20.2005 -10.3775 17.3279 -1.5855 0.0000 0.0000 25.7647 -21.3732 -40.8547 14.3595 7.1250 -0.0000 -0.0000 23.4338 -71.6487 -15.1119
6.4780 16.6233 35.3133 179.5880 2.9279 -169.7740 0.0000 0.0000 0.0000 -19.6377 -9.3877 -5.3908 0.1874 2.7879 7.6889 0.5195 -5.9685 -12.8861 0.7185 -5.4166 -15.1008 0.0000 0.0000 0.0000 18.2223 5.6468 -6.1507 -0.2019 -2.8930 7.9811 -0.4203 2.6855 -11.6168 -0.9867 6.3226 -17.7234 -6.1610 0.9280 -10.2804 1.4683 1.9288 0.9524 5.3375 0.7038 6.5397 -3.1435 0.6082 -8.4705 7.0346 -4.1922 31.6627 2.4211 -2.6164 11.9603 0.0000 0.0000 0.0000 -91.0512 -1.5513 10.7261 7.6985 -13.0629 -0.8827 -0.0000 -0.0000 37.1390 38.0073 -23.6217 -17.3874 -7.1250 0.0000 -0.0000 5.3051 1.0566 -5.2290 0.0000 0.0000 0.0000 93.9883 -4.7028 -20.1713 -10.3982 17.3600 -1.5917 0.0000 0.0000 25.0783 -22.7226 -39.0353 14.7749 7.1250 -0.0000 -0.0000 18.8679 -70.4764 -11.6128
6.4794 16.6233 35.3075 179.5220 2.9704 -169.7990 0.0000 0.0000 0.0000 -19.7352 -9.3697 -5.3454 0.1884 2.7956 7.7103 0.5240 -6.0407 -12.9459 0.7045 -5.3649 -14.9523 0.0000 0.0000 0.0000 18.1403 5.5445 -6.1731 -0.2056 -2.9198 8.0556 -0.4406 2.8311 -11.8846 -0.8982 6.0402 -16.9011 -6.2151 0.8791 -10.3193 1.4958 1.8713 0.9831 5.3916 0.6696 6.6003 -3.1195 0.6709 -8.4775 6.9570 -4.0760 31.6716 2.4024 -2.5694 11.9550 0.0000 -0.0000 0.0000 -91.1526 -1.4350 10.9128 7.7616 -13.1657 -0.8971 -0.0000 -0.0000 36.7111 37.9593 -23.4100 -17.2212 -7.1250 0.0000 -0.0000 5.3199 1.3168 -5.2190 0.0000 -0.0000 0.0000 93.8862 -4.6835 -19.9076 -10.3706 17.3171 -1.5835 0.0000 0.0000 24.3848 -24.0941 -37.1841 15.1244 7.1250 -0.0000 -0.0000 14.6984 -69.1895 -8.5841
6.4815 16.6224 35.3042 179.4530 2.9782 -169.7640 0.0000 0.0000 0.0000 -19.8082 -9.3658 -5.3963 0.1903 2.8093 7.7483 0.5249 -6.1270 -12.9648 0.6814 -5.2780 -14.7033 0.0000 0.0000 0.0000 18.0586 5.5554 -6.2223 -0.2082 -2.9382 8.1066 -0.4638 2.9529 -12.1901 -0.8281 5.8057 -16.2216 -6.3346 0.7995 -10.3889 1.5669 1.7807 0.9933 5.5252 0.6168 6.6583 -3.1757 0.7411 -8.4872 6.9084 -3.9369 31.6742 2.4119 -2.5173 11.9476 0.0000 -0.0000 0.0000 -91.3683 -1.3313 10.8393 7.8134 -13.2499 -0.9089 -0.0000 -0.0000 36.5938 37.9181 -23.1158 -17.0049 -7.1250 0.0000 -0.0000 5.3550 1.6708 -5.2197 0.0000 -0.0000 0.0000 93.6936 -4.6572 -19.5771 -10.3513 17.2872 -1.5777 0.0000 0.0000 23.8985 -25.3067 -35.2817 15.2756 7.1250 -0.0000 -0.0000 11.1133 -67.7221 -6.1006
6.4839 16.6205 35.3024 179.4590 3.0376 -169.7900 0.0000 0.0000 0.0000 -19.7904 -9.2506 -5.3856 0.1891 2.8006 7.7242 0.5266 -5.8864 -12.9646 0.8174 -5.7691 -16.1160 0.0000 0.0000 0.0000 18.0801 5.7091 -6.1533 -0.2080 -2.9364 8.1016 -0.5078 3.1267 -12.7546 -0.7184 5.4161 -15.0994 -6.3546 0.8051 -10.3691 1.6213 1.7861 0.9927 5.5949 0.6184 6.6435 -3.2300 0.8028 -8.4950 6.9051 -3.8312 31.6970 2.4342 -2.4760 11.9513 -0.0000 0.0000 0.0000 -91.5186 -1.2517 10.7602 7.8142 -13.2513 -0.9091 -0.0000 -0.0000 36.7054 38.0369 -22.9074 -16.9362 -7.1250 0.0000 -0.0000 5.4680 1.8777 -5.3104 -0.0000 0.0000 0.0000 93.5890 -4.7035 -19.3239 -10.3536 17.2908 -1.5784 0.0000 0.0000 23.4954 -27.3631 -31.7421 15.2309 7.1250 -0.0000 -0.0000 5.6996 -64.7539 -2.7284
